# xmcd
#
# Track frame offsets:
#	187
#	6265
#	22615
#	38012
#	53185
#	71597
#	100335
#	113890
#	132950
#	149932
#	171865
#	192225
#	210535
#
# Disc length: 3038 seconds
#
# Revision: 1
# Processed by: cddbd v1.5PL3 Copyright (c) Steve Scherf et al.
# Submitted via: CDex 1.50Beta5
#
DISCID=b70bdc0d
DTITLE=CASCADE - コドモZ
DYEAR=1999
DGENRE=Rock
TTITLE0=ヒロシ
TTITLE1=マダラダマ
TTITLE2=カミカゼBOWZキドウタイ
TTITLE3=ハレルヤ!アイノメガミ
TTITLE4=メモリーズ
TTITLE5=イパネマ
TTITLE6=アイファクトロニー
TTITLE7=ウェイスター
TTITLE8=アントニオーニノヒゲキ
TTITLE9=ヨルノマボロシ
TTITLE10=アザヤカナキセキ#2
TTITLE11=カッコウ#2
TTITLE12=コドモZ
EXTD=
EXTT0=
EXTT1=
EXTT2=
EXTT3=
EXTT4=
EXTT5=
EXTT6=
EXTT7=
EXTT8=
EXTT9=
EXTT10=
EXTT11=
EXTT12=
PLAYORDER=
